<svg xmlns="http://www.w3.org/2000/svg" viewBox="0 0 604.46 612.38"><defs><radialGradient id="b" cx="0" cy="0" r="1" gradientTransform="scale(226.198 -226.198) rotate(20.747 4.613 2.855)" gradientUnits="userSpaceOnUse"><stop offset="0" stop-color="#fff200"/><stop offset=".19" stop-color="#fff200"/><stop offset="1" stop-color="#f57c25"/></radialGradient><clipPath id="a"><path stroke-width=".1" d="M361.96 316.83c-8.718-4.78-20.299-6.17-27.882-18.497-4.998-8.132-6.934-23.06-14.397-32.837-8.494 5.16-15.484 14.499-29.944 14.9-9.536.262-23.427-5.53-35.618-3.956.222 9.941 4.814 20.671-2.063 33.399-4.537 8.394-16.494 17.532-21.221 28.881 8.715 4.781 20.298 6.171 27.88 18.499 4.998 8.13 6.934 23.061 14.397 32.837 8.494-5.16 15.484-14.499 29.944-14.901 9.536-.263 23.429 5.53 35.618 3.955-.222-9.94-4.814-20.67 2.064-33.398 4.537-8.394 16.494-17.531 21.222-28.882zm-28.267 76.82c.203-.235.38-.471.567-.706a15.88 15.88 0 0 1-4.038-.054c-34.514-4.873-51.392 29.488-51.392 29.488l-20.797-29.374c.305.059.598.093.895.14a16.05 16.05 0 0 1-1.973-3.526c-13.05-32.34-51.24-29.794-51.24-29.794l15.022-32.694c.102.294.218.564.328.845a15.89 15.89 0 0 1 2.065-3.472c21.465-27.464.153-59.281.153-59.281L259.1 261.9c-.203.237-.379.472-.567.707a16.02 16.02 0 0 1 4.038.055c34.514 4.873 51.392-29.488 51.392-29.488l20.797 29.373c-.305-.06-.597-.095-.894-.139a16.006 16.006 0 0 1 1.971 3.527c13.052 32.338 51.242 29.792 51.242 29.792l-15.023 32.694c-.102-.293-.218-.564-.327-.845a15.883 15.883 0 0 1-2.065 3.472c-21.465 27.466-.155 59.282-.155 59.282zm108.43-114.89c6.675 56.272-43.081 92.667-61.164 109.64 0 0-13.917-16.742-11.335-41.699 25.532-10.235 39.999-30.027 42.526-79.781 2.306-45.506 17.278-90.412 55.108-102.25-42.333 36.259-29.76 75.138-25.135 114.08zm9.131 22.851-6.084-48.676s4.108-16.874 35.661-32.317c-35.45 33.991-11.696 54.122-29.577 80.993zm8.315 53.99c-17.33 20.925-65.358 31.68-65.358 31.68 46.085-29.268 58.488-92.271 94.256-105.22-25.622 23.379-24.356 68.063-28.898 73.544zm-63.046 93.271 39.094-29.593s16.662-4.873 45.815 14.751c-47.16-13.731-52.7 16.907-84.909 14.842zm35.547 22.471c-33.057-10.517-71.105 12.906-78.122 11.709-26.784-4.559-60.124-40.796-60.124-40.796 48.393 25.304 109.14 4.57 138.25 29.087zm-145.85-40.008s7.529-20.424 30.425-30.656c21.635 17.007 46.005 19.651 90.34-3.02 40.543-20.738 86.908-30.205 116.08-3.341-52.569-18.561-79.934 11.758-111.33 35.224-45.373 33.901-101.77 8.978-125.52 1.793zm-42.805-49.588c-3.897 27.243 6.007 49.679 47.814 76.763 38.238 24.765 69.632 60.206 60.974 98.905-10.236-54.82-50.172-63.38-86.197-78.859-52.047-22.371-58.692-83.691-64.351-107.85 0 0 21.447-3.684 41.76 11.041zm43.424 112.37s12.554 12.001 10.155 47.066c-11.712-47.722-41.005-37.213-55.332-66.149zm-90.834-111.37c2.309 54.571 50.649 96.841 43.992 134.31-7.437-33.896-46.749-55.156-49.225-61.835-9.455-25.483 5.233-72.475 5.233-72.475zm-54.473-28.815 6.085 48.677s-4.107 16.875-35.661 32.317c35.451-33.992 11.697-54.122 29.576-80.994zm-8.314-53.99c17.331-20.923 65.358-31.678 65.358-31.678-46.085 29.268-58.489 92.271-94.255 105.22 25.621-23.38 24.355-68.064 28.897-73.546zm17.446 76.843c-6.674-56.273 43.082-92.67 61.164-109.64 0 0 13.919 16.743 11.335 41.698-25.532 10.236-39.997 30.027-42.526 79.782-2.305 45.505-17.278 90.412-55.108 102.25 42.333-36.259 29.761-75.138 25.135-114.08zm10.053-192.58c33.057 10.517 71.106-12.904 78.122-11.709 26.785 4.56 60.124 40.797 60.124 40.797-48.393-25.305-109.14-4.569-138.25-29.088zm35.547 22.471-39.093 29.594s-16.661 4.874-45.816-14.751c47.162 13.73 52.702-16.909 84.909-14.843zm110.3 17.538s-7.529 20.425-30.424 30.656c-21.636-17.007-46.006-19.651-90.341 3.018-40.543 20.74-86.909 30.207-116.08 3.344 52.57 18.56 79.934-11.759 111.33-35.226 45.372-33.9 101.77-8.977 125.52-1.792zm90.215 48.586c-2.31-54.57-50.65-96.84-43.991-134.31 7.435 33.896 46.748 55.155 49.223 61.835 9.455 25.484-5.232 72.475-5.232 72.475zm-47.41 1.002c3.898-27.244-6.006-49.678-47.815-76.763-38.238-24.766-69.631-60.206-60.974-98.906 10.236 54.821 50.175 63.382 86.197 78.86 52.048 22.371 58.691 83.692 64.352 107.85 0 0-21.448 3.682-41.76-11.042zm-43.424-112.37s-12.556-11.999-10.156-47.066c11.712 47.724 41.005 37.214 55.332 66.151z"/></clipPath></defs><path fill="url(#b)" d="M361.96 316.83c-8.718-4.78-20.299-6.17-27.882-18.497-4.998-8.132-6.934-23.06-14.397-32.837-8.494 5.16-15.484 14.499-29.944 14.9-9.536.262-23.427-5.53-35.618-3.956.222 9.941 4.814 20.671-2.063 33.399-4.537 8.394-16.494 17.532-21.221 28.881 8.715 4.781 20.298 6.171 27.88 18.499 4.998 8.13 6.934 23.061 14.397 32.837 8.494-5.16 15.484-14.499 29.944-14.901 9.536-.263 23.429 5.53 35.618 3.955-.222-9.94-4.814-20.67 2.064-33.398 4.537-8.394 16.494-17.531 21.222-28.882zm-28.267 76.82c.203-.235.38-.471.567-.706a15.88 15.88 0 0 1-4.038-.054c-34.514-4.873-51.392 29.488-51.392 29.488l-20.797-29.374c.305.059.598.093.895.14a16.05 16.05 0 0 1-1.973-3.526c-13.05-32.34-51.24-29.794-51.24-29.794l15.022-32.694c.102.294.218.564.328.845a15.89 15.89 0 0 1 2.065-3.472c21.465-27.464.153-59.281.153-59.281L259.1 261.9c-.203.237-.379.472-.567.707a16.02 16.02 0 0 1 4.038.055c34.514 4.873 51.392-29.488 51.392-29.488l20.797 29.373c-.305-.06-.597-.095-.894-.139a16.006 16.006 0 0 1 1.971 3.527c13.052 32.338 51.242 29.792 51.242 29.792l-15.023 32.694c-.102-.293-.218-.564-.327-.845a15.883 15.883 0 0 1-2.065 3.472c-21.465 27.466-.155 59.282-.155 59.282zm108.43-114.89c6.675 56.272-43.081 92.667-61.164 109.64 0 0-13.917-16.742-11.335-41.699 25.532-10.235 39.999-30.027 42.526-79.781 2.306-45.506 17.278-90.412 55.108-102.25-42.333 36.259-29.76 75.138-25.135 114.08zm9.131 22.851-6.084-48.676s4.108-16.874 35.661-32.317c-35.45 33.991-11.696 54.122-29.577 80.993zm8.315 53.99c-17.33 20.925-65.358 31.68-65.358 31.68 46.085-29.268 58.488-92.271 94.256-105.22-25.622 23.379-24.356 68.063-28.898 73.544zm-63.046 93.271 39.094-29.593s16.662-4.873 45.815 14.751c-47.16-13.731-52.7 16.907-84.909 14.842zm35.547 22.471c-33.057-10.517-71.105 12.906-78.122 11.709-26.784-4.559-60.124-40.796-60.124-40.796 48.393 25.304 109.14 4.57 138.25 29.087zm-145.85-40.008s7.529-20.424 30.425-30.656c21.635 17.007 46.005 19.651 90.34-3.02 40.543-20.738 86.908-30.205 116.08-3.341-52.569-18.561-79.934 11.758-111.33 35.224-45.373 33.901-101.77 8.978-125.52 1.793zm-42.805-49.588c-3.897 27.243 6.007 49.679 47.814 76.763 38.238 24.765 69.632 60.206 60.974 98.905-10.236-54.82-50.172-63.38-86.197-78.859-52.047-22.371-58.692-83.691-64.351-107.85 0 0 21.447-3.684 41.76 11.041zm43.424 112.37s12.554 12.001 10.155 47.066c-11.712-47.722-41.005-37.213-55.332-66.149zm-90.834-111.37c2.309 54.571 50.649 96.841 43.992 134.31-7.437-33.896-46.749-55.156-49.225-61.835-9.455-25.483 5.233-72.475 5.233-72.475zm-54.473-28.815 6.085 48.677s-4.107 16.875-35.661 32.317c35.451-33.992 11.697-54.122 29.576-80.994zm-8.314-53.99c17.331-20.923 65.358-31.678 65.358-31.678-46.085 29.268-58.489 92.271-94.255 105.22 25.621-23.38 24.355-68.064 28.897-73.546zm17.446 76.843c-6.674-56.273 43.082-92.67 61.164-109.64 0 0 13.919 16.743 11.335 41.698-25.532 10.236-39.997 30.027-42.526 79.782-2.305 45.505-17.278 90.412-55.108 102.25 42.333-36.259 29.761-75.138 25.135-114.08zm10.053-192.58c33.057 10.517 71.106-12.904 78.122-11.709 26.785 4.56 60.124 40.797 60.124 40.797-48.393-25.305-109.14-4.569-138.25-29.088zm35.547 22.471-39.093 29.594s-16.661 4.874-45.816-14.751c47.162 13.73 52.702-16.909 84.909-14.843zm110.3 17.538s-7.529 20.425-30.424 30.656c-21.636-17.007-46.006-19.651-90.341 3.018-40.543 20.74-86.909 30.207-116.08 3.344 52.57 18.56 79.934-11.759 111.33-35.226 45.372-33.9 101.77-8.977 125.52-1.792zm90.215 48.586c-2.31-54.57-50.65-96.84-43.991-134.31 7.435 33.896 46.748 55.155 49.223 61.835 9.455 25.484-5.232 72.475-5.232 72.475zm-47.41 1.002c3.898-27.244-6.006-49.678-47.815-76.763-38.238-24.766-69.631-60.206-60.974-98.906 10.236 54.821 50.175 63.382 86.197 78.86 52.048 22.371 58.691 83.692 64.352 107.85 0 0-21.448 3.682-41.76-11.042zm-43.424-112.37s-12.556-11.999-10.156-47.066c11.712 47.724 41.005 37.214 55.332 66.151l-45.176-19.085" clip-path="url(#a)" transform="matrix(1.3333 0 0 -1.3333 -92.96 743.22)"/></svg>